# xmcd
#
# Track frame offsets: 
#        150
#        20544
#        34239
#        49576
#        62206
#        81480
#        104350
#        120567
#        131940
#        142355
#        158507
#        174707
#        187019
#        208955
#        224605
#        242872
#        261895
#        278862
#        293655
#        308329
#
# Disc length: 4166 seconds
#
# Revision: 4
# Processed by: cddbd v1.4PL0 Copyright (c) Steve Scherf et al.
# Submitted via: ExactAudioCopy v0.90b4
#
DISCID=3e104414
DTITLE=Various Artist - A Boy Named Sue - Johnny Cash Revisited
DYEAR=2002
DGENRE=Country
TTITLE0=The Boinaut - I Wish I Was Tied To Bertha
TTITLE1=Gerry Lee and The Wanted Men - Locomotive Man
TTITLE2=Guz - Guess Things Happen That Way
TTITLE3=Kingston Cowboys - Ring Of Fire
TTITLE4=Cow - Jackson
TTITLE5=Tilman Rossmy Quartett - Orange Blossom Special
TTITLE6=Lily,Friends and Husbands - Give My Love To Rose
TTITLE7=Hazzard County Moonshine Ramblers - Big River
TTITLE8=Wiglaf Droste and Das Spardosenterzett - I Won`t Back Down
TTITLE9=Alvaro - Senor Johnny Cash
TTITLE10=Smokestack Lightnin` - Ring Of Fire
TTITLE11=Hack Mack Jackson - Rusty Cage
TTITLE12=Whils - Thirteen
TTITLE13=Fred Is Dead - Don`t Take Your Guns To Town
TTITLE14=Danny Dziuk - Let The Train Blow The Whistle
TTITLE15=Bernadette La Hengst - Ein Mädchen Namens Gerd
TTITLE16=Mann Ohne Schmerzen - Big River
TTITLE17=Queen Of Japan - Wanted Man
TTITLE18=Three Shades Of Blues - Gdje Je Kod Kuce,Mama
TTITLE19=Columbo - Columbo - Schwanengesang
EXTD=(c)2002 Trikont, Kistlerstrasse 1, 81510 München, www.trikont\nup
EXTD=c 4015698029826\nThis trubute-compilation to Johnny Cash, the No.
EXTD=1 of counry msuci and a man respected by muscians of all genres,
EXTD=celebrates not only his 70th birthday on february 26h 2002, but 
EXTD=also pays hommage to the fact that, from 191-1954, he lived as a 
EXTD=G.I. in Landsberg, Bavaria, Germany.\nIt was there that he bought
EXTD=his first guitar and played in his first band, The Landsberg Bar
EXTD=barians.\nThis compilation of Cash-covers in country, pop and ele
EXTD=ctronic styles, performed by German bands or musicians living in 
EXTD=this land (with one execption), is a special feedback to the Man 
EXTD=in Black and his German years - and that's one thing this country
EXTD=can be proud of. Happy Birthday, Mister Cash.\n
EXTT0=
EXTT1=
EXTT2=
EXTT3=
EXTT4=
EXTT5=
EXTT6=
EXTT7=
EXTT8=
EXTT9=
EXTT10=
EXTT11=
EXTT12=
EXTT13=
EXTT14=
EXTT15=
EXTT16=
EXTT17=
EXTT18=
EXTT19=
PLAYORDER=
